# xmcd CD database file
#
# Track frame offsets:
#	150
#	36476
#	61673
#	88964
#	110736
#	130723
#	160744
#	184168
#	210750
#	248497
#	264401
#
# Disc length: 3794 seconds
#
# Revision: 0
# Processed by: cddbd v1.5.2PL0 Copyright (c) Steve Scherf et al.
# Submitted via: CDex 2.02
#
DISCID=8e0ed00b
DTITLE=David Lee Durham - Struggling and Straining
DYEAR=2006
DGENRE=Blues
TTITLE0=My Heart is Filled with Misery
TTITLE1=I Want to Do It
TTITLE2=Sunday Night Blues
TTITLE3=Swing Tonight
TTITLE4=Feel So Bad
TTITLE5=Struggling and Straining
TTITLE6=I Got a Whole Lot of Loving
TTITLE7=On the Way Up I'll Get You On the Way Down
TTITLE8=Doing Me Wrong
TTITLE9=Crosscut Saw
TTITLE10=Everyday I Have the Blues
EXTD=YEAR: 2006
EXTT0=
EXTT1=
EXTT2=
EXTT3=
EXTT4=
EXTT5=
EXTT6=
EXTT7=
EXTT8=
EXTT9=
EXTT10=
PLAYORDER=
